<?xml version="1.0" standalone="no"?>
<!DOCTYPE svg PUBLIC "-//W3C//DTD SVG 20010904//EN"
 "http://www.w3.org/TR/2001/REC-SVG-20010904/DTD/svg10.dtd">
<svg version="1.0" xmlns="http://www.w3.org/2000/svg"
 width="1185.000000pt" height="591.000000pt" viewBox="0 0 1185.000000 591.000000"
 preserveAspectRatio="xMidYMid meet">
<metadata>
</metadata>
<g transform="translate(0.000000,591.000000) scale(0.100000,-0.100000)"
fill="#FFFFFF" stroke="none">
<path d="M5910 4330 c0 -783 0 -790 20 -790 20 0 20 7 20 790 0 783 0 790 -20
790 -20 0 -20 -7 -20 -790z"/>
<path d="M4031 4548 c-11 -24 -34 -79 -51 -123 -17 -44 -37 -93 -45 -110 -7
-16 -20 -50 -30 -75 -9 -25 -23 -56 -29 -70 -28 -57 -39 -110 -29 -133 6 -12
17 -40 26 -62 8 -22 28 -74 45 -115 53 -133 89 -224 110 -275 l21 -50 212 -3
c117 -1 216 1 221 6 5 5 -5 40 -21 78 -16 38 -43 104 -60 147 -17 42 -45 112
-62 155 -17 42 -38 95 -46 117 -9 22 -21 54 -28 70 -7 17 -21 50 -30 75 -10
25 -23 59 -30 75 -7 17 -21 50 -30 75 -9 25 -23 59 -30 75 -7 17 -20 50 -30
75 -33 86 -45 110 -55 110 -6 0 -19 -19 -29 -42z"/>
<path d="M6556 4541 c-3 -5 20 -22 52 -37 100 -51 96 -29 102 -534 l5 -435
200 0 200 0 5 445 c5 425 6 446 25 473 18 24 70 56 118 71 10 3 15 10 12 16
-8 13 -711 14 -719 1z"/>
<path d="M8127 4544 c-10 -11 2 -24 22 -24 23 0 96 -53 113 -82 10 -18 14
-128 18 -463 l5 -440 203 -3 202 -2 0 428 c0 424 0 428 23 472 17 36 33 51 79
74 32 15 55 32 52 37 -6 10 -707 13 -717 3z"/>
<path d="M2853 3188 c-12 -24 -36 -74 -53 -113 -18 -38 -43 -93 -56 -121 -13
-28 -24 -55 -24 -59 0 -5 -7 -16 -15 -25 -9 -10 -13 -24 -9 -33 10 -26 39 -4
64 48 l22 45 114 0 c100 0 115 -2 120 -17 15 -46 40 -83 56 -83 26 0 22 20
-17 99 -19 38 -35 72 -35 75 0 7 -58 134 -71 156 -5 8 -14 27 -20 43 -17 43
-51 36 -76 -15z m64 -59 c6 -13 23 -48 37 -77 39 -82 39 -82 -59 -82 -83 0
-85 1 -85 24 0 13 7 29 15 36 8 7 15 19 15 27 0 8 6 27 14 41 8 15 17 35 20
45 8 24 28 17 43 -14z"/>
<path d="M3354 3217 c-2 -7 -3 -96 -2 -197 3 -177 4 -185 23 -185 17 0 20 8
23 50 2 27 7 55 13 61 7 8 82 12 121 5 3 0 26 -28 50 -61 24 -33 51 -60 61
-60 31 0 18 34 -35 91 -24 26 -23 35 11 65 39 35 55 75 48 127 -4 33 -14 50
-48 80 l-42 37 -109 0 c-79 0 -110 -3 -114 -13z m215 -36 c40 -22 51 -42 51
-92 0 -46 -2 -50 -39 -74 -33 -23 -47 -26 -107 -23 l-69 3 -3 94 c-2 69 1 96
10 102 17 11 132 3 157 -10z"/>
<path d="M3895 3219 c-12 -18 4 -23 66 -24 42 0 63 -4 69 -15 5 -8 10 -90 10
-181 0 -91 3 -169 7 -172 3 -4 12 -2 20 4 10 9 13 52 13 184 l0 173 25 6 c14
4 36 4 49 0 32 -8 66 3 66 22 0 12 -28 14 -159 14 -103 0 -162 -4 -166 -11z"/>
<path d="M4487 3223 c-4 -3 -7 -91 -7 -193 0 -145 3 -190 13 -199 8 -6 17 -8
20 -4 4 3 7 96 7 205 0 158 -3 198 -13 198 -8 0 -17 -3 -20 -7z"/>
<path d="M4844 3196 c-48 -48 -48 -96 2 -142 19 -19 43 -34 53 -34 28 0 119
-35 141 -55 27 -24 25 -47 -5 -75 -22 -21 -35 -24 -96 -23 -51 1 -76 6 -89 18
-11 10 -26 15 -35 11 -14 -5 -14 -8 0 -29 19 -29 105 -52 165 -44 58 7 108 44
116 84 7 37 -2 72 -25 93 -20 20 -95 50 -123 50 -32 0 -87 39 -94 67 -15 58
101 108 160 69 48 -31 88 -8 46 26 -17 14 -39 18 -102 18 -78 0 -81 -1 -114
-34z"/>
<path d="M5499 3213 c-15 -18 -35 -58 -84 -168 -14 -33 -39 -87 -56 -120 -30
-61 -36 -90 -20 -99 12 -8 36 22 55 67 l15 38 113 -3 113 -3 17 -34 c10 -19
26 -44 37 -55 36 -36 37 7 1 82 -18 37 -38 81 -45 97 -50 114 -102 210 -116
213 -8 1 -22 -5 -30 -15z m41 -64 c0 -6 14 -37 30 -71 17 -33 30 -71 30 -84 0
-23 -2 -24 -80 -24 -66 0 -80 3 -80 16 0 27 80 185 90 179 5 -3 10 -11 10 -16z"/>
<path d="M5987 3223 c-4 -3 -7 -91 -7 -193 0 -145 3 -190 13 -199 8 -6 17 -8
20 -4 4 3 7 73 7 155 0 147 4 165 34 136 6 -7 48 -60 93 -118 103 -134 150
-183 163 -175 6 4 10 79 10 206 0 186 -1 200 -17 197 -16 -3 -18 -20 -21 -151
-1 -81 -6 -147 -10 -147 -15 0 -40 26 -100 106 -34 45 -67 88 -74 95 -7 8 -28
33 -46 57 -32 40 -51 50 -65 35z"/>
<path d="M6980 3218 c-3 -133 1 -381 5 -389 5 -7 12 -6 21 2 10 8 14 35 14 95
l0 84 125 0 125 0 0 -78 c0 -77 18 -130 34 -104 5 9 9 250 6 390 0 8 -8 12
-17 10 -15 -3 -19 -18 -23 -88 l-5 -85 -120 0 -120 0 -5 85 c-4 70 -8 85 -22
88 -10 2 -18 -2 -18 -10z"/>
<path d="M7634 3215 c-4 -8 -5 -78 -2 -154 3 -133 4 -139 31 -175 46 -59 121
-80 198 -55 88 30 111 86 107 264 -3 122 -4 130 -23 130 -19 0 -20 -8 -25
-151 -5 -144 -7 -153 -30 -178 -22 -22 -33 -26 -91 -26 -53 0 -69 4 -83 19
-34 37 -45 92 -46 219 0 103 -2 122 -15 122 -9 0 -18 -7 -21 -15z"/>
<path d="M8286 3222 c-3 -5 -6 -91 -6 -192 -2 -166 0 -185 16 -197 12 -9 55
-13 134 -13 116 0 144 8 133 36 -4 11 -32 14 -119 14 l-114 0 0 70 c0 49 4 70
13 71 6 0 42 0 80 -1 77 -2 107 5 107 26 0 11 -20 14 -100 14 l-101 0 3 73 3
72 107 1 c109 0 125 4 113 23 -8 13 -261 15 -269 3z"/>
<path d="M8876 3211 c-41 -27 -60 -75 -46 -117 14 -40 52 -64 140 -89 59 -16
110 -51 110 -75 0 -5 -11 -21 -24 -36 -22 -26 -29 -28 -95 -27 -51 1 -78 6
-90 17 -21 19 -51 21 -51 3 0 -32 80 -67 152 -67 44 0 97 22 122 49 26 28 26
93 1 121 -23 26 -96 60 -129 60 -12 0 -38 11 -59 25 -28 20 -37 32 -37 55 0
56 98 89 164 55 15 -8 35 -15 42 -15 20 0 17 24 -4 43 -28 25 -157 23 -196 -2z"/>
<path d="M4468 2504 c-4 -3 -1 -20 7 -38 7 -17 27 -67 45 -111 32 -80 43 -108
73 -176 22 -51 30 -102 22 -137 -4 -22 -15 -33 -46 -45 -21 -8 -39 -21 -39
-29 0 -11 68 -13 365 -13 332 0 365 2 365 16 0 11 -12 19 -37 24 -83 15 -146
77 -190 185 -17 41 -44 109 -61 150 -16 41 -39 98 -50 125 l-21 50 -213 3
c-118 1 -217 0 -220 -4z"/>
<path d="M6717 2504 c-4 -4 -7 -95 -7 -201 0 -172 -2 -198 -19 -232 -24 -46
-44 -63 -90 -76 -20 -6 -37 -17 -39 -25 -2 -13 46 -15 353 -15 307 0 355 2
353 15 -2 8 -20 19 -41 25 -20 6 -52 25 -70 43 l-32 32 -5 218 -5 217 -196 3
c-107 1 -198 -1 -202 -4z"/>
<path d="M8287 2503 c-4 -3 -7 -93 -7 -200 0 -206 -6 -239 -50 -278 -12 -11
-38 -25 -58 -30 -20 -6 -38 -17 -40 -25 -2 -13 46 -15 353 -15 307 0 355 2
353 15 -2 8 -19 19 -39 25 -48 13 -68 32 -90 80 -16 34 -19 68 -19 238 l0 197
-198 0 c-109 0 -202 -3 -205 -7z"/>
<path d="M3204 2483 c-7 -21 -31 -76 -50 -116 -8 -16 -14 -36 -14 -45 0 -9 -7
-26 -15 -36 -8 -11 -15 -30 -15 -42 0 -12 -7 -27 -15 -34 -8 -7 -15 -23 -15
-35 0 -12 -7 -28 -15 -35 -8 -7 -15 -18 -15 -25 0 -25 -91 -105 -133 -115 -63
-16 -67 -18 -67 -33 0 -10 33 -13 160 -13 122 1 160 4 160 14 0 7 -12 18 -27
24 -50 21 -63 38 -63 83 0 22 7 50 15 61 8 10 15 27 15 36 0 16 6 30 44 106 9
19 16 40 16 47 0 7 8 28 17 47 9 18 22 45 30 60 16 31 17 68 3 68 -6 0 -13 -8
-16 -17z"/>
<path d="M5910 1625 c0 -868 0 -875 20 -875 20 0 20 7 20 875 0 868 0 875 -20
875 -20 0 -20 -7 -20 -875z"/>
</g>
</svg>
