<?xml version="1.0" standalone="no"?>
<!DOCTYPE svg PUBLIC "-//W3C//DTD SVG 20010904//EN"
 "http://www.w3.org/TR/2001/REC-SVG-20010904/DTD/svg10.dtd">
<svg version="1.0" xmlns="http://www.w3.org/2000/svg"
 width="295.000000pt" height="197.000000pt" viewBox="0 0 295.000000 197.000000"
 preserveAspectRatio="xMidYMid meet">
<g transform="translate(0.000000,197.000000) scale(0.100000,-0.100000)"
fill="#000000" stroke="none">
<path d="M1430 984 c0 -574 3 -863 10 -859 7 4 10 303 10 866 0 566 -3 859
-10 859 -7 0 -10 -295 -10 -866z"/>
<path d="M969 1460 l-36 -89 83 -208 c46 -114 84 -211 84 -215 0 -4 -77 -9
-172 -10 l-172 -3 -44 -110 c-47 -118 -64 -145 -94 -145 -10 0 -18 -4 -18 -10
0 -6 27 -10 60 -10 33 0 60 4 60 10 0 6 -6 10 -14 10 -29 0 -26 22 17 130 l45
110 172 2 173 1 44 -109 c43 -109 47 -134 18 -134 -8 0 -15 -3 -15 -7 0 -5 56
-8 125 -9 69 0 125 2 125 5 0 4 -15 13 -33 21 -30 14 -40 37 -198 433 -92 230
-169 420 -171 422 -1 2 -19 -37 -39 -85z m185 -383 c75 -189 136 -349 136
-356 0 -7 -10 -11 -26 -9 -29 3 -19 -19 -201 440 -80 203 -85 219 -73 247 7
17 16 29 20 26 4 -3 69 -159 144 -348z"/>
<path d="M1545 1518 c45 -24 45 -23 45 -424 0 -334 -2 -385 -16 -398 -8 -9
-22 -16 -30 -16 -8 0 -14 -3 -14 -7 0 -5 56 -8 125 -8 69 0 125 3 125 8 0 4
-9 7 -20 7 -34 0 -40 32 -40 224 l0 186 195 0 195 0 0 -193 c0 -200 -3 -217
-42 -217 -10 0 -18 -4 -18 -8 0 -4 56 -8 125 -7 69 0 125 2 125 5 0 3 -10 10
-22 15 l-23 10 -3 402 -2 402 27 15 c26 14 19 15 -102 16 l-130 0 33 -20 32
-20 0 -195 0 -195 -195 0 -195 0 0 195 0 195 33 20 32 20 -130 0 c-100 -1
-125 -3 -110 -12z m133 -421 l2 -387 -25 0 -25 0 0 384 c0 389 1 400 35 392 6
-2 11 -142 13 -389z m523 371 c8 -15 9 -118 4 -390 l-7 -368 -24 0 -24 0 0
384 c0 385 1 392 32 395 4 1 12 -9 19 -21z"/>
</g>
</svg>
