<?xml version="1.0" standalone="no"?>
<!DOCTYPE svg PUBLIC "-//W3C//DTD SVG 20010904//EN"
 "http://www.w3.org/TR/2001/REC-SVG-20010904/DTD/svg10.dtd">
 
<svg width="249" height="54" viewBox="0 0 249 54" fill="green" xmlns="http://www.w3.org/2000/svg" class="svg-background">
    <path fill-rule="evenodd" clip-rule="evenodd" d="M177.464 4.90002C217.115 4.20301 217.355 4.39559 218.546 5.8264C219.189 6.59819 224.95 7.5935 231.348 8.03821C239.012 8.57087 243.628 9.46631 244.873 10.6622C245.913 11.6607 247.267 12.4777 247.882 12.4777C248.497 12.4777 249 13.5929 249 14.956C249 16.9315 248.221 17.4343 245.162 17.4343C243.051 17.4343 241.324 17.9919 241.324 18.6735C241.324 19.355 242.344 19.9126 243.591 19.9126C246.869 19.9126 247.815 22.3631 244.605 22.5377C243.122 22.6184 241.514 22.6184 241.032 22.5377C240.55 22.457 240.156 22.9486 240.156 23.6301C240.156 24.3117 241.47 24.8693 243.076 24.8693C244.682 24.8693 245.996 25.4269 245.996 26.1084C245.996 26.79 245.442 27.3476 244.764 27.3476C244.114 27.3476 241.304 28.4478 238.413 29.827C239.87 30.066 240.746 30.3806 240.746 30.724C240.746 31.4055 238.775 31.9708 236.366 31.9801C235.046 31.9852 233.463 32.1065 232.038 32.2935C230.41 32.7712 228.624 33.1997 226.624 33.585L226.145 33.7268L229.649 34.5571C231.654 35.0321 229.972 35.3926 224.866 35.5967C223.648 35.7135 223.148 36.3817 223.523 37.4173C223.589 37.5987 223.622 37.7763 223.625 37.9483C230.191 37.7824 236.576 37.449 239.578 36.9851C245.87 36.0125 247.664 36.1896 246.29 37.6477C245.115 38.8939 236.826 40.8295 233.243 40.6942C231.365 40.6233 229.444 41.2254 228.974 42.0323C228.504 42.8392 226.377 43.4469 224.246 43.3826C223.721 43.3668 223.186 43.3798 222.669 43.417C223.429 44.2293 222.821 44.5645 220.505 45.6839C220.06 45.8987 219.636 46.1522 219.251 46.4261C221.315 46.4484 224.101 46.416 227.313 46.3215C245.653 45.7817 239.614 47.6038 219.424 48.7019C218.718 48.7403 218.012 48.78 217.31 48.8208C217.306 48.855 217.304 48.8887 217.304 48.9217C217.304 49.8516 215.621 50.9697 213.563 51.4064C210.364 52.085 210.152 52.3376 212.103 53.147C213.357 53.6678 198.352 54.0493 178.758 53.9948C159.163 53.9404 145.496 53.5057 148.387 53.0289C152.878 52.2882 153.133 52.106 150.139 51.7782C149.009 51.6545 141.762 51.4963 131.49 51.3526C121.218 51.4963 113.971 51.6545 112.841 51.7782C109.847 52.106 110.102 52.2882 114.593 53.0289C117.484 53.5057 103.817 53.9404 84.2227 53.9948C64.6281 54.0493 49.6228 53.6678 50.8776 53.147C52.8279 52.3376 52.616 52.085 49.4176 51.4064C47.3597 50.9697 45.6759 49.8516 45.6759 48.9217C45.6759 48.8887 45.6741 48.855 45.6706 48.8208C44.9681 48.78 44.262 48.7403 43.5561 48.7019C23.366 47.6038 17.3274 45.7817 35.6672 46.3215C38.8789 46.416 41.6649 46.4484 43.7296 46.4261C43.344 46.1522 42.9199 45.8987 42.4754 45.6839C40.1596 44.5645 39.5507 44.2293 40.311 43.417C39.7937 43.3798 39.2591 43.3668 38.7338 43.3826C36.6036 43.4469 34.476 42.8392 34.0059 42.0323C33.5358 41.2254 31.6147 40.6233 29.7369 40.6942C27.2796 40.787 22.6075 39.9054 19.5362 38.9403C19.1344 38.8415 18.8254 38.7374 18.6068 38.6275C17.6664 38.2867 16.973 37.9473 16.6906 37.6477C16.6219 37.5749 16.5612 37.5052 16.5085 37.4387C15.5997 37.1375 14.5149 36.9474 13.5118 36.9474C10.6793 36.9474 10.2081 36.529 10.7159 34.469C11.1817 32.5793 10.7517 31.9907 8.90524 31.9907C7.5736 31.9907 6.82965 31.6238 7.2524 31.1754C7.37398 31.0463 7.43872 30.8596 7.45154 30.6362C2.84766 30.3024 -0.154579 29.8547 0.130051 29.349C0.448454 28.7832 3.04269 27.9483 6.01534 27.4365C5.98863 27.2096 6.108 27.1071 6.38348 27.1804C7.39164 27.4491 10.4012 26.1026 12.2868 24.8181C12.3594 24.3188 12.9721 23.6826 13.8782 23.0987C13.8152 22.596 12.9214 22.4717 11.8376 22.8294C10.3058 23.3346 10.379 23.1195 12.1296 21.971C12.5155 21.7178 12.9182 21.4111 13.3068 21.0812C12.0785 21.1262 10.5593 21.2008 8.72264 21.3023C2.62355 21.6393 -1.15759 21.6026 0.320068 21.2207C2.31198 20.706 2.68766 20.1311 1.77264 18.9973C0.824624 17.8226 2.08539 17.1317 7.21046 16.0174C14.421 14.4498 18.9932 12.7584 19.6149 11.5246C18.3159 11.0665 17.386 10.4271 17.386 9.82701C17.386 9.71557 17.7825 9.61526 18.5005 9.5291C18.5761 8.02969 22.372 6.30617 28.077 5.43593C31.7548 4.87487 33.9743 4.33852 33.0092 4.24421C31.5727 4.10366 31.6131 3.84284 33.2326 2.80568C34.3206 2.10901 38.3899 1.76791 42.2754 2.04751C46.4935 2.35131 49.333 2.0688 49.3226 1.34645C49.3009 -0.154223 68.0479 -0.475833 83.1926 0.765083C105.292 2.57584 110.807 2.80497 107.155 1.7604C104.26 0.932379 104.843 0.7591 110.442 0.782749C114.186 0.798678 117.485 1.20499 117.775 1.68566C118.026 2.10253 119.082 2.45173 121.024 2.73812C123.751 2.3204 125.542 1.92973 125.8 1.65541C126.134 1.30148 127.721 1.01147 129.327 1.01147C133.004 1.01147 132.038 2.15552 127.648 3.00004C127.234 3.07961 126.829 3.16421 126.449 3.2498C132.271 3.61182 141.17 3.78051 153.633 3.78437C167.538 3.78872 175.15 4.14079 177.464 4.90002ZM22.6013 31.2206C19.0906 31.1734 15.6062 31.072 12.4658 30.9272C12.2889 31.8539 12.7917 32.5541 13.5897 32.4864C14.3927 32.4182 18.0721 32.2618 21.7662 32.139C23.3779 32.0854 24.5878 32.0218 25.4468 31.9306C24.1721 31.8252 23.1267 31.5608 22.6013 31.2206ZM226.729 41.1837C226.729 41.4843 226.203 42.0748 225.561 42.496C224.918 42.9172 224.393 42.6713 224.393 41.9496C224.393 41.2278 224.918 40.6373 225.561 40.6373C226.203 40.6373 226.729 40.8832 226.729 41.1837ZM55.6045 51.7897C56.0016 52.4713 55.7698 53.0289 55.0894 53.0289C54.409 53.0289 53.8523 52.4713 53.8523 51.7897C53.8523 51.1082 54.0841 50.5506 54.3675 50.5506C54.6507 50.5506 55.2074 51.1082 55.6045 51.7897ZM89.1869 52.713C83.2443 52.9379 73.52 52.9379 67.5773 52.713C61.6347 52.4881 66.4969 52.3041 78.3821 52.3041C90.2674 52.3041 95.1295 52.4881 89.1869 52.713ZM36.2514 41.1837C36.2514 41.4843 36.777 42.0748 37.4195 42.496C38.062 42.9172 38.5876 42.6713 38.5876 41.9496C38.5876 41.2278 38.062 40.6373 37.4195 40.6373C36.777 40.6373 36.2514 40.8832 36.2514 41.1837ZM207.376 51.7897C206.979 52.4713 207.21 53.0289 207.891 53.0289C208.571 53.0289 209.128 52.4713 209.128 51.7897C209.128 51.1082 208.896 50.5506 208.613 50.5506C208.329 50.5506 207.773 51.1082 207.376 51.7897ZM173.793 52.713C179.736 52.9379 189.46 52.9379 195.403 52.713C201.345 52.4881 196.483 52.3041 184.598 52.3041C172.713 52.3041 167.851 52.4881 173.793 52.713ZM208.326 7.15646C209.771 7.45184 212.137 7.45184 213.582 7.15646C215.028 6.86112 213.845 6.61946 210.954 6.61946C208.063 6.61946 206.88 6.86111 208.326 7.15646Z"/>
</svg>